<?xml version="1.0" encoding="UTF-8" standalone="no"?>
<!DOCTYPE svg PUBLIC "-//W3C//DTD SVG 1.1//EN" "http://www.w3.org/Graphics/SVG/1.1/DTD/svg11.dtd">
<!-- Created with Vectornator (http://vectornator.io/) -->
<svg stroke-miterlimit="10" style="fill-rule:nonzero;clip-rule:evenodd;stroke-linecap:round;stroke-linejoin:round;" version="1.1" viewBox="0 0 204 35" xml:space="preserve" xmlns="http://www.w3.org/2000/svg" xmlns:xlink="http://www.w3.org/1999/xlink">
<defs>
<linearGradient gradientTransform="matrix(1 0 0 1 72.5743 0.535791)" gradientUnits="userSpaceOnUse" id="LinearGradient" x1="0.63004" x2="58.19" y1="16.9699" y2="16.9699">
<stop offset="0" stop-color="#581ac6"/>
<stop offset="1" stop-color="#195ffb"/>
</linearGradient>
</defs>
<g id="Untitled">
<path d="M86.0144 2.63568C90.1444 1.99568 94.4943 3.18568 97.7243 5.82568C98.4443 6.42568 99.3044 7.05571 99.4944 8.04571C99.6544 8.67571 99.3044 9.53572 98.6044 9.61572C97.8944 9.76572 97.5143 9.06572 97.0643 8.67572C93.5443 5.03572 87.7043 4.00569 83.1243 6.14569C79.8643 7.60569 77.3043 10.5257 76.3043 13.9557C75.3243 17.1757 75.7443 20.7757 77.4243 23.6857C79.1943 26.8157 82.3743 29.0957 85.9043 29.7557C89.1743 30.4057 92.6744 29.6457 95.3944 27.7457C98.5444 25.5757 100.724 21.8557 100.624 17.9757C100.594 14.2957 101.814 10.5957 104.234 7.79571C107.164 4.30571 111.744 2.28572 116.294 2.48572C120.804 2.61572 125.174 4.93568 127.834 8.57568C130.384 11.9857 131.354 16.5057 130.444 20.6657C129.464 25.3857 126.044 29.5057 121.584 31.3557C116.804 33.4157 110.994 32.7357 106.814 29.6257C106.004 28.9857 105.034 28.3757 104.704 27.3357C104.504 26.7757 104.704 25.9957 105.354 25.8557C106.024 25.6757 106.674 26.0557 107.124 26.5257C109.684 29.0157 113.374 30.2757 116.924 29.9057C120.244 29.5957 123.404 27.8757 125.474 25.2657C127.594 22.6457 128.564 19.1357 128.084 15.7957C127.614 12.1057 125.344 8.72573 122.164 6.81573C117.764 4.08573 111.674 4.51573 107.734 7.87573C104.854 10.2357 103.314 13.9457 103.294 17.6257C103.274 21.4557 101.764 25.2457 99.0643 27.9757C95.7343 31.4157 90.7043 33.1057 85.9743 32.3557C81.5743 31.7057 77.5643 28.9757 75.3143 25.1557C73.0343 21.3457 72.5843 16.5157 74.1243 12.3457C75.9343 7.2657 80.6743 3.37573 86.0244 2.62573L86.0144 2.63568Z" fill="url(#LinearGradient)" fill-rule="nonzero" opacity="1" stroke="none"/>
</g>
</svg>
