<?xml version="1.0" encoding="UTF-8" standalone="no"?>
<!DOCTYPE svg PUBLIC "-//W3C//DTD SVG 1.1//EN" "http://www.w3.org/Graphics/SVG/1.1/DTD/svg11.dtd">
<!-- Created with Vectornator (http://vectornator.io/) -->
<svg stroke-miterlimit="10" style="fill-rule:nonzero;clip-rule:evenodd;stroke-linecap:round;stroke-linejoin:round;" version="1.1" viewBox="0 0 204 35" xml:space="preserve" xmlns="http://www.w3.org/2000/svg" xmlns:xlink="http://www.w3.org/1999/xlink">
<defs/>
<g id="Untitled">
<path d="M93.0307 12.2177C92.7707 11.9677 92.4206 11.8477 91.9706 11.8477C91.5206 11.8477 91.1707 11.9777 90.9207 12.2277C90.6707 12.4777 90.5407 12.8377 90.5407 13.2977L90.5407 18.9177C90.5407 19.8777 90.2806 20.6177 89.7506 21.1877C89.2206 21.7477 88.5607 22.0177 87.7007 22.0177C86.9607 22.0177 86.4207 21.8277 86.1007 21.4477C85.7607 21.0477 85.5907 20.3977 85.5907 19.5177L85.5907 13.3077C85.5907 12.8477 85.4606 12.4777 85.1906 12.2277C84.9306 11.9777 84.5807 11.8577 84.1407 11.8577C83.7007 11.8577 83.3407 11.9877 83.0907 12.2377C82.8407 12.4877 82.7107 12.8477 82.7107 13.3077L82.7107 19.5177C82.7107 20.5877 82.8706 21.4977 83.1906 22.2277C83.5206 22.9777 84.0407 23.5577 84.7307 23.9377C85.4007 24.3177 86.2507 24.5077 87.2407 24.5077C88.2307 24.5077 89.1607 24.2477 89.9207 23.7177C90.1607 23.5477 90.3807 23.3677 90.5807 23.1477C90.6107 23.5277 90.7307 23.8277 90.9507 24.0577C91.2007 24.3177 91.5606 24.4577 92.0006 24.4577C92.8906 24.4577 93.4007 23.9177 93.4007 22.9877L93.4007 13.3177C93.4007 12.8577 93.2706 12.4877 93.0006 12.2377L93.0307 12.2177Z" fill="#020001" fill-rule="nonzero" opacity="1" stroke="none"/>
<path d="M121.751 14.67C121.421 13.92 120.911 13.35 120.251 12.97C119.601 12.6 118.761 12.41 117.771 12.41C116.781 12.41 115.821 12.6601 115.011 13.1501C114.731 13.3201 114.471 13.5201 114.241 13.7601L114.241 8.74004C114.241 8.28004 114.111 7.92002 113.841 7.66002C113.331 7.18002 112.281 7.16002 111.751 7.66002C111.491 7.91002 111.361 8.28004 111.361 8.74004L111.361 23.5801C111.361 24.0401 111.491 24.4 111.751 24.66C112.011 24.92 112.361 25.05 112.791 25.05C113.711 25.05 114.241 24.5101 114.241 23.5801L114.241 17.99C114.241 17.02 114.501 16.28 115.051 15.72C115.591 15.16 116.301 14.8901 117.221 14.8901C117.981 14.8901 118.511 15.08 118.841 15.47C119.181 15.88 119.351 16.56 119.351 17.49L119.351 23.5801C119.351 24.0401 119.481 24.41 119.741 24.66C120.001 24.91 120.351 25.05 120.801 25.05C121.251 25.05 121.601 24.92 121.851 24.66C122.101 24.4 122.221 24.0401 122.221 23.5801L122.221 17.37C122.221 16.3 122.061 15.39 121.741 14.66L121.751 14.67Z" fill="#020001" fill-rule="nonzero" opacity="1" stroke="none"/>
</g>
</svg>
